<?xml version="1.0" standalone="no"?>
<!DOCTYPE svg PUBLIC "-//W3C//DTD SVG 20010904//EN"
 "http://www.w3.org/TR/2001/REC-SVG-20010904/DTD/svg10.dtd">
<svg version="1.0" xmlns="http://www.w3.org/2000/svg"
 width="102.000000pt" height="44.000000pt" viewBox="0 0 102.000000 44.000000"
 preserveAspectRatio="xMidYMid meet">

<g transform="translate(0.000000,44.000000) scale(0.100000,-0.100000)"
fill="#000000" stroke="none">
<path d="M953 270 c0 -36 2 -50 4 -32 2 17 2 47 0 65 -2 17 -4 3 -4 -33z"/>
<path d="M432 281 c-24 -15 -9 -45 28 -57 23 -8 35 -18 35 -30 0 -23 -39 -31
-61 -14 -10 9 -14 9 -14 1 0 -13 44 -25 65 -17 41 15 25 59 -25 70 -18 3 -30
12 -30 21 0 22 27 30 57 16 23 -11 25 -10 13 3 -14 17 -47 21 -68 7z"/>
<path d="M557 283 c19 -4 23 -12 26 -66 l3 -62 2 62 c2 59 3 62 30 66 15 2 2
4 -28 4 -30 0 -45 -2 -33 -4z"/>
<path d="M677 272 c-22 -25 -21 -75 1 -95 21 -19 58 -22 68 -6 4 8 9 7 15 -2
5 -9 9 13 9 56 0 43 -4 65 -9 56 -6 -9 -11 -10 -15 -2 -11 17 -51 13 -69 -7z
m75 -17 c18 -41 0 -80 -37 -80 -23 0 -32 6 -39 27 -14 39 6 78 39 78 18 0 29
-8 37 -25z"/>
<path d="M822 283 c26 -4 27 -8 31 -66 l3 -62 2 62 c2 55 4 62 25 66 12 2 -3
4 -33 4 -30 0 -43 -2 -28 -4z"/>
<path d="M50 115 c0 -52 1 -55 25 -55 24 0 25 3 25 55 0 52 -1 55 -25 55 -24
0 -25 -3 -25 -55z"/>
</g>
</svg>
